<svg xmlns="http://www.w3.org/2000/svg" width="72" height="72" viewBox="0 0 72 72">
  <g id="Glyph" transform="translate(-0.239)">
    <g id="Glyph-2" data-name="Glyph" transform="translate(0.239 0)">
      <path id="Path_210506" data-name="Path 210506" d="M66.44,68.608a13.063,13.063,0,0,1-7.46-9.039.861.861,0,0,0-.283-.461,15.506,15.506,0,0,1-3.459-4.247,3.727,3.727,0,0,1,.193-4,3.78,3.78,0,0,1,3.718-1.542,5.907,5.907,0,0,0,1.381.084.85.85,0,0,0,.634-.343,12.709,12.709,0,0,1,7.342-4.838.838.838,0,0,0,.645-.816V37.254a.849.849,0,0,0-.73-.838c-.492-.073-.928-.152-1.33-.248a14.482,14.482,0,0,1-4.709-2.07.808.808,0,0,0-.538-.146A17.358,17.358,0,0,1,55.7,33.2a3.91,3.91,0,0,1-1.087-6.969,7.21,7.21,0,0,0,1.415-1.249.82.82,0,0,0,.2-.675A14.31,14.31,0,0,1,68.41,8.111a.845.845,0,0,0,.725-.877A7.6,7.6,0,0,0,61.51,0H32.642A7.629,7.629,0,0,0,25,7.594V20.138a.849.849,0,0,0,.284.624.86.86,0,0,0,.655.214,19.372,19.372,0,0,1,1.953-.107A18.655,18.655,0,0,1,44.857,31.742a.851.851,0,0,0,.515.461,10.984,10.984,0,0,0,3.379.54,4.43,4.43,0,0,1,3.981,2.516,4.378,4.378,0,0,1-.562,4.655A21.869,21.869,0,0,1,45.734,45.4a.815.815,0,0,0-.391.444A18.605,18.605,0,0,1,27.864,57.881a19.085,19.085,0,0,1-1.925-.112.861.861,0,0,0-.655.214.85.85,0,0,0-.285.624v5.8A7.629,7.629,0,0,0,32.642,72H61.51a7.629,7.629,0,0,0,5.158-2,.841.841,0,0,0-.227-1.388ZM41.755,6.187a3.6,3.6,0,0,1-3.108-1.98l-1.359-2.52H56.868L55.5,4.207A3.6,3.6,0,0,1,52.4,6.187Zm11.264,58.5H41.132a.844.844,0,1,1,0-1.687H53.019a.844.844,0,1,1,0,1.688Z" transform="translate(-11.062 0)" fill="#fff"/>
      <path id="Path_210507" data-name="Path 210507" d="M105.483,101.252h2.23l.6-2.252h-2.23Z" transform="translate(-45.996 -43.314)" fill="#fff"/>
      <path id="Path_210508" data-name="Path 210508" d="M91.395,81.781a11.053,11.053,0,0,0-5.3,4.481.25.25,0,0,1-.169.113,8.109,8.109,0,0,1-2.979.046,2.052,2.052,0,0,0-2.127,3.037,13.278,13.278,0,0,0,3.659,4.268.241.241,0,0,1,.1.157,11.616,11.616,0,0,0,11.236,9.665,11.249,11.249,0,0,0,9.119-17.654,11.37,11.37,0,0,0-13.534-4.112Zm9.39,9.344H99.165l-.6,2.252h1.659a.844.844,0,1,1,0,1.689H98.11l-.54,2.013a.845.845,0,1,1-1.632-.437l.422-1.576H94.13L93.584,97.1a.845.845,0,1,1-1.632-.437l.429-1.6H91.216a.844.844,0,1,1,0-1.689h1.619l.6-2.252H91.778a.844.844,0,1,1,0-1.689H93.89l.54-2.013a.845.845,0,1,1,1.632.437l-.422,1.576h2.23l.546-2.038a.845.845,0,0,1,1.632.437l-.431,1.6h1.167a.844.844,0,1,1,0,1.689Z" transform="translate(-35.096 -35.448)" fill="#fff"/>
      <path id="Path_210509" data-name="Path 210509" d="M81.545,24.693a12.586,12.586,0,0,0-.816,7.768.411.411,0,0,1-.069.323,9.255,9.255,0,0,1-2.407,2.411,2.222,2.222,0,0,0,.608,3.954,14.655,14.655,0,0,0,6.24.611.366.366,0,0,1,.272.069A12.857,12.857,0,0,0,93.1,42.457,12.7,12.7,0,0,0,104.3,24.069c-4.8-9.328-18.493-9.012-22.75.624Zm12.4,10.794a1.567,1.567,0,0,1-1.546,0c-3.3-1.877-5.178-4.208-5.1-7.163A3.313,3.313,0,0,1,90.6,25a3.274,3.274,0,0,1,2.573,1.248A3.274,3.274,0,0,1,95.743,25a3.313,3.313,0,0,1,3.3,3.328C99.124,31.279,97.245,33.608,93.943,35.487Z" transform="translate(-33.673 -7.547)" fill="#fff"/>
      <path id="Path_210510" data-name="Path 210510" d="M33.033,62.2a.8.8,0,0,1,.409-.461,19.6,19.6,0,0,0,6.448-5.359A2.713,2.713,0,0,0,37.8,51.971a12.865,12.865,0,0,1-4.651-.9.869.869,0,0,1-.5-.479,16.8,16.8,0,0,0-6.712-7.968C14.038,35.17-1.221,45.07.351,58.956c.929,8.207,8.521,14.986,16.707,14.815A16.959,16.959,0,0,0,33.033,62.2ZM13.051,64.078a1.671,1.671,0,0,1-.844.229H9.955a1.689,1.689,0,0,1-1.689-1.689V54.176a1.689,1.689,0,0,1,1.689-1.689h2.252a1.684,1.684,0,0,1,.844.225Zm1.689-.757V53.209c1.654-1.534,2.718-4.658,3.426-6.131,1.247-2.594,3.76.885,3.146,2.758-.212.648-.662,2.646-.662,2.646a5.066,5.066,0,0,1,5.066,5.066v1.689A5.066,5.066,0,0,1,20.649,64.3H17.506A3.376,3.376,0,0,1,16,63.946Z" transform="translate(-0.239 -17.545)" fill="#fff"/>
    </g>
  </g>
</svg>
