<svg id="google" xmlns="http://www.w3.org/2000/svg" width="72" height="72" viewBox="0 0 72 72">
  <path id="Path_210489" data-name="Path 210489" d="M280.042,204.453a35.975,35.975,0,0,0-.634-6.737A2.114,2.114,0,0,0,277.332,196H244.113A2.112,2.112,0,0,0,242,198.112v12.681a2.112,2.112,0,0,0,2.113,2.113h17.044a18.927,18.927,0,0,1-4.244,5.584l11.945,11.945A35.8,35.8,0,0,0,280.042,204.453Z" transform="translate(-208.042 -168.523)"/>
  <path id="Path_210490" data-name="Path 210490" d="M74.44,16.908a18.831,18.831,0,0,1,11.405,3.81,2.11,2.11,0,0,0,2.764-.2L97.628,11.5a2.114,2.114,0,0,0-.136-3.115,35.89,35.89,0,0,0-52.829,7.457L57.069,28.25A19.026,19.026,0,0,1,74.44,16.908Z" transform="translate(-38.37)"/>
  <path id="Path_210491" data-name="Path 210491" d="M74.44,339.75a35.692,35.692,0,0,0,21.5-7.212L83.771,320.368a18.934,18.934,0,0,1-26.7-8.868L44.663,323.906A35.921,35.921,0,0,0,74.44,339.75Z" transform="translate(-38.37 -267.75)"/>
  <path id="Path_210492" data-name="Path 210492" d="M17.215,159.621a15.21,15.21,0,0,1,0-6.088L3.954,140.271a35.6,35.6,0,0,0,0,32.612Z" transform="translate(0 -120.577)"/>
</svg>
