<svg xmlns="http://www.w3.org/2000/svg" width="72" height="47.767" viewBox="0 0 72 47.767">
  <g id="meta" transform="translate(0 -85.881)">
    <path id="Path_210493" data-name="Path 210493" d="M51.674,85.881c-5.9,0-10.519,4.439-14.7,10.079-5.741-7.3-10.542-10.079-16.288-10.079C8.975,85.881,0,101.1,0,117.21c0,10.081,4.885,16.439,13.067,16.439,5.889,0,10.124-2.772,17.654-15.912,0,0,3.139-5.534,5.3-9.345q1.135,1.829,2.391,3.943l3.531,5.93c6.878,11.49,10.71,15.384,17.654,15.384C67.564,133.649,72,127.2,72,116.913c0-16.867-9.177-31.032-20.326-31.032Zm-26.695,28.3c-6.1,9.554-8.216,11.695-11.615,11.695-3.5,0-5.576-3.066-5.576-8.532,0-11.695,5.841-23.653,12.8-23.653,3.77,0,6.921,2.174,11.747,9.072-4.583,7.018-7.359,11.419-7.359,11.419Zm23.039-1.2L43.8,105.948q-1.714-2.782-3.294-5.122c3.8-5.863,6.943-8.784,10.676-8.784,7.754,0,13.958,11.4,13.958,25.4,0,5.337-1.751,8.434-5.379,8.434-3.477,0-5.138-2.293-11.74-12.9Z" fill="#fff"/>
  </g>
</svg>
