<svg xmlns="http://www.w3.org/2000/svg" width="72" height="86.493" viewBox="0 0 72 86.493">
  <g id="popularity" transform="translate(-4.064 -2)">
    <path id="Path_210494" data-name="Path 210494" d="M45.4,57.372V63.5a2.315,2.315,0,0,1-2.3,2.3H12.457a2.315,2.315,0,0,1-2.3-2.3V57.372a17.483,17.483,0,0,1,9.407-15.536,14.555,14.555,0,1,1,16.425,0A17.484,17.484,0,0,1,45.4,57.372Z" transform="translate(12.285 22.695)" fill="#fff"/>
    <path id="Path_210495" data-name="Path 210495" d="M46.147,55.34v6.129a2.315,2.315,0,0,1-2.3,2.3H32.358v-2.3a22.086,22.086,0,0,0-6.895-16.087,19.161,19.161,0,0,0-6.558-28.528A14.556,14.556,0,1,1,36.77,39.774,17.454,17.454,0,0,1,46.146,55.34Z" transform="translate(29.917 22.598)" fill="#fff"/>
    <path id="Path_210496" data-name="Path 210496" d="M4.064,55.34v6.129a2.315,2.315,0,0,0,2.3,2.3H17.853v-2.3a22.086,22.086,0,0,1,6.895-16.087,19.161,19.161,0,0,1,6.558-28.528,14.556,14.556,0,1,0-17.865,22.92A17.454,17.454,0,0,0,4.064,55.34Z" transform="translate(0 22.598)" fill="#fff"/>
    <path id="Path_210497" data-name="Path 210497" d="M26.4,28.205,18.5,32.36a1.532,1.532,0,0,1-2.223-1.615l1.509-8.8a1.532,1.532,0,0,0-.441-1.356l-6.393-6.232a1.532,1.532,0,0,1,.849-2.613l8.835-1.284a1.531,1.531,0,0,0,1.153-.838l3.951-8.006a1.532,1.532,0,0,1,2.748,0l3.951,8.006a1.533,1.533,0,0,0,1.153.838l8.835,1.284a1.532,1.532,0,0,1,.849,2.613l-6.393,6.232a1.533,1.533,0,0,0-.441,1.356l1.509,8.8a1.532,1.532,0,0,1-2.223,1.615l-7.9-4.154a1.532,1.532,0,0,0-1.426,0Z" transform="translate(12.949 3.537)" fill="#fff"/>
    <path id="Path_210498" data-name="Path 210498" d="M32.808,9.05H26.679a2.3,2.3,0,0,1,0-4.6h6.129a2.3,2.3,0,0,1,0,4.6Z" transform="translate(40.958 10.981)" fill="#fff"/>
    <path id="Path_210499" data-name="Path 210499" d="M25.86,7.285a2.3,2.3,0,0,1-1.011-4.364L30.357.234a2.3,2.3,0,0,1,2.017,4.133L26.865,7.054A2.306,2.306,0,0,1,25.86,7.285Z" transform="translate(39.3 2)" fill="#fff"/>
    <path id="Path_210500" data-name="Path 210500" d="M31.363,15.3a2.306,2.306,0,0,1-1.005-.232l-5.509-2.686a2.3,2.3,0,0,1,2.017-4.133l5.509,2.686A2.3,2.3,0,0,1,31.363,15.3Z" transform="translate(39.299 18.161)" fill="#fff"/>
    <path id="Path_210501" data-name="Path 210501" d="M12.49,9.05H6.362a2.3,2.3,0,0,1,0-4.6H12.49a2.3,2.3,0,1,1,0,4.6Z" transform="translate(0 10.981)" fill="#fff"/>
    <path id="Path_210502" data-name="Path 210502" d="M12.9,7.284a2.306,2.306,0,0,1-1.005-.232L6.381,4.364A2.3,2.3,0,0,1,8.4.232l5.509,2.687A2.3,2.3,0,0,1,12.9,7.284Z" transform="translate(2.072 2.002)" fill="#fff"/>
    <path id="Path_210503" data-name="Path 210503" d="M7.393,15.3a2.3,2.3,0,0,1-1.011-4.364l5.509-2.686a2.3,2.3,0,0,1,2.017,4.133L8.4,15.065A2.315,2.315,0,0,1,7.393,15.3Z" transform="translate(2.073 18.16)" fill="#fff"/>
  </g>
</svg>
