<svg xmlns="http://www.w3.org/2000/svg" width="72" height="72" viewBox="0 0 72 72">
  <g id="seo" transform="translate(-0.001)">
    <path id="Path_210504" data-name="Path 210504" d="M3.066,397.931a8.71,8.71,0,0,0-.546,12.758h0a8.709,8.709,0,0,0,12.758-.546l.867-1.029-12.05-12.05Z" transform="translate(0 -341.209)" fill="#fff"/>
    <circle id="Ellipse_63" data-name="Ellipse 63" cx="4.845" cy="4.845" r="4.845" transform="translate(50.686 26.815) rotate(-9.321)" fill="#fff"/>
    <path id="Path_210505" data-name="Path 210505" d="M86.916,0a29.914,29.914,0,0,0-25.6,45.415l-9.149,7.7L63.722,64.67l7.7-9.149A29.922,29.922,0,1,0,86.916,0ZM64.964,34.143a1.9,1.9,0,0,1,2.682.132,4.485,4.485,0,0,0,3.3,1.377,2.057,2.057,0,0,0,2.15-1.36c.155-.87-1.212-1.446-1.635-1.6-2.434-.925-3.311-1.04-4.307-1.783a4.7,4.7,0,0,1-2.007-4.454,4.957,4.957,0,0,1,3.589-4.006,8.09,8.09,0,0,1,7.048,1.54,1.9,1.9,0,0,1-2.441,2.9l0,0a4.3,4.3,0,0,0-3.51-.81A1.15,1.15,0,0,0,68.9,27a.717.717,0,0,0,.433.748c.634.274,1.992.849,3.437,1.382,3.528,1.3,4.41,3.866,4.059,5.832a5.778,5.778,0,0,1-5.888,4.49,8.225,8.225,0,0,1-6.111-2.625,1.9,1.9,0,0,1,.132-2.682ZM87.272,28.9a1.9,1.9,0,1,1,0,3.8H83.951v2.89h3.737a1.9,1.9,0,1,1,0,3.8H82.052a1.9,1.9,0,0,1-1.9-1.9V24.114a1.9,1.9,0,0,1,1.9-1.9h5.636a1.9,1.9,0,1,1,0,3.8H83.951V28.9Zm13.8,10.547a8.648,8.648,0,1,1,8.648-8.648A8.658,8.658,0,0,1,101.068,39.449Z" transform="translate(-44.84)" fill="#fff"/>
  </g>
</svg>
